<svg width="1600" height="900" viewBox="0 0 1600 900" fill="none" xmlns="http://www.w3.org/2000/svg">
  <defs>
    <linearGradient id="sky" x1="0" y1="0" x2="1600" y2="900" gradientUnits="userSpaceOnUse">
      <stop stop-color="#F7FAFF"/>
      <stop offset="0.45" stop-color="#DCE8F7"/>
      <stop offset="1" stop-color="#9EC0E3"/>
    </linearGradient>
    <linearGradient id="field" x1="0" y1="520" x2="1600" y2="900" gradientUnits="userSpaceOnUse">
      <stop stop-color="#E8EEF6"/>
      <stop offset="1" stop-color="#B6C8D9"/>
    </linearGradient>
    <linearGradient id="panel" x1="1040" y1="180" x2="1600" y2="900" gradientUnits="userSpaceOnUse">
      <stop stop-color="#2A3F5F" stop-opacity="0.85"/>
      <stop offset="1" stop-color="#0A1527" stop-opacity="0.95"/>
    </linearGradient>
    <linearGradient id="drone" x1="640" y1="280" x2="980" y2="620" gradientUnits="userSpaceOnUse">
      <stop stop-color="#1A36B0"/>
      <stop offset="1" stop-color="#0E1F66"/>
    </linearGradient>
    <filter id="blur" x="-20%" y="-20%" width="140%" height="140%">
      <feGaussianBlur stdDeviation="22"/>
    </filter>
  </defs>

  <rect width="1600" height="900" fill="url(#sky)"/>
  <circle cx="250" cy="150" r="180" fill="#FFFFFF" fill-opacity="0.75" filter="url(#blur)"/>
  <circle cx="1370" cy="150" r="230" fill="#7FB2D8" fill-opacity="0.35" filter="url(#blur)"/>

  <path d="M0 570L1600 450V900H0V570Z" fill="url(#field)"/>
  <path d="M0 610L1600 500" stroke="#7B93A8" stroke-opacity="0.45" stroke-width="3"/>
  <path d="M180 540L380 900" stroke="#7B93A8" stroke-opacity="0.3" stroke-width="2"/>
  <path d="M370 520L540 900" stroke="#7B93A8" stroke-opacity="0.25" stroke-width="2"/>
  <path d="M590 500L690 900" stroke="#7B93A8" stroke-opacity="0.22" stroke-width="2"/>
  <path d="M810 480L800 900" stroke="#7B93A8" stroke-opacity="0.2" stroke-width="2"/>
  <path d="M1020 470L930 900" stroke="#7B93A8" stroke-opacity="0.24" stroke-width="2"/>
  <path d="M1240 470L1140 900" stroke="#7B93A8" stroke-opacity="0.3" stroke-width="2"/>
  <path d="M1450 500L1330 900" stroke="#7B93A8" stroke-opacity="0.25" stroke-width="2"/>

  <rect x="1090" y="120" width="430" height="610" rx="26" fill="url(#panel)" fill-opacity="0.9"/>
  <rect x="1130" y="160" width="350" height="42" rx="10" fill="#FFFFFF" fill-opacity="0.08"/>
  <rect x="1130" y="224" width="290" height="22" rx="8" fill="#FFFFFF" fill-opacity="0.12"/>
  <rect x="1130" y="262" width="320" height="22" rx="8" fill="#FFFFFF" fill-opacity="0.12"/>
  <rect x="1130" y="300" width="220" height="22" rx="8" fill="#FFFFFF" fill-opacity="0.12"/>

  <g opacity="0.95">
    <circle cx="800" cy="430" r="106" fill="#FFFFFF" fill-opacity="0.32"/>
    <circle cx="800" cy="430" r="70" fill="#FFFFFF" fill-opacity="0.55"/>
    <rect x="786" y="330" width="28" height="200" rx="14" fill="url(#drone)"/>
    <rect x="700" y="416" width="200" height="28" rx="14" fill="url(#drone)"/>
    <circle cx="660" cy="430" r="34" fill="url(#drone)"/>
    <circle cx="940" cy="430" r="34" fill="url(#drone)"/>
    <circle cx="800" cy="300" r="28" fill="url(#drone)"/>
    <path d="M705 355L756 406" stroke="url(#drone)" stroke-width="10" stroke-linecap="round"/>
    <path d="M895 355L844 406" stroke="url(#drone)" stroke-width="10" stroke-linecap="round"/>
    <path d="M800 458L800 540" stroke="url(#drone)" stroke-width="10" stroke-linecap="round"/>
    <path d="M800 300L800 258" stroke="url(#drone)" stroke-width="10" stroke-linecap="round"/>
  </g>

  <path d="M0 0H1600V120H0V0Z" fill="#FFFFFF" fill-opacity="0.15"/>
  <path d="M0 848H1600V900H0V848Z" fill="#1A36B0" fill-opacity="0.08"/>
</svg>
